<svg width="512" height="512" viewBox="0 0 512 512" fill="none" xmlns="http://www.w3.org/2000/svg" xmlns:xlink="http://www.w3.org/1999/xlink" class=""><rect id="r4" width="511" height="511" x="0.5" y="0.5" rx="128" fill="#121212" stroke="#525252" stroke-width="1" stroke-opacity="100%" paint-order="stroke"></rect><clipPath id="clip"><use xlink:href="#r4"></use></clipPath><defs><linearGradient id="r5" gradientUnits="userSpaceOnUse" gradientTransform="rotate(45)" style="transform-origin: center center;"><stop stop-color="#121212"></stop><stop offset="1" stop-color="#3E5151"></stop></linearGradient><radialGradient id="r6" cx="0" cy="0" r="1" gradientUnits="userSpaceOnUse" gradientTransform="translate(256) rotate(90) scale(512)"><stop stop-color="white"></stop><stop offset="1" stop-color="white" stop-opacity="0"></stop></radialGradient></defs><svg viewBox="0 0 16 16" fill="none" xmlns="http://www.w3.org/2000/svg" width="280" height="280" x="116" y="116" alignment-baseline="middle" style="color: rgb(199, 199, 199);"><path d="M8.75 2v3.25a1 1 0 0 0 1 1H13m.25.164v5.836a2 2 0 0 1-2 2h-6.5a2 2 0 0 1-2-2v-8.5a2 2 0 0 1 2-2h3.836a1 1 0 0 1 .707.293l3.664 3.664a1 1 0 0 1 .293.707Z" stroke="currentColor" stroke-width="1.5" stroke-linecap="round" stroke-linejoin="round"></path></svg></svg>